<svg width="63" height="62" fill="none" xmlns="http://www.w3.org/2000/svg">
  <path d="M55.8426 11.3954v15.1447c0 .6401-.2542 1.254-.7068 1.7065a2.41349 2.41349 0 01-1.7065.7069H39.4138l-6.221 4.9735v-4.9735h-6.7794c-.6401 0-1.2539-.2543-1.7065-.7069A2.41314 2.41314 0 0124 26.5401V8.53769a2.4134 2.4134 0 012.4134-2.41336h18.0513" stroke="#0081C6" stroke-width="2" stroke-linecap="round" stroke-linejoin="round"/>
  <path d="M30.5472 15.5251c1.4252 0 2.5805-1.1553 2.5805-2.5805 0-1.4252-1.1553-2.5805-2.5805-2.5805-1.4252 0-2.5805 1.1553-2.5805 2.5805 0 1.4252 1.1553 2.5805 2.5805 2.5805zM24 24.8239l10.1631-6.1884 9.1846 6.1884 6.2618-3.0942 6.2331 4.1256" stroke="#0081C6" stroke-width="2" stroke-linecap="round" stroke-linejoin="round"/>
  <path d="M46.0751 4.61598L39.793 11.0734c-.2358.2413-.42.528-.5415.8427a2.48755 2.48755 0 00-.165.988 2.48645 2.48645 0 00.841 1.773v0c.48.4221 1.1036.6439 1.7423.6196a2.4947 2.4947 0 001.6902-.75l5.1407-5.29965s7.4031 5.23035 13.4936-.86018V1H39.2345a2.49935 2.49935 0 00-1.1286.26927 2.49943 2.49943 0 00-.8853.74989l-2.8537 3.88912M7.16577 30.9895v-2.4622c0-.9583.38041-1.8774 1.05766-2.5554a3.61575 3.61575 0 012.55427-1.0606h8.6367" stroke="#697684" stroke-width="2" stroke-linecap="round" stroke-linejoin="round"/>
  <path d="M7.16577 51.4246v3.0622" stroke="#697684" stroke-width="2" stroke-linecap="round"/>
  <path d="M34.2897 55.7656c0 .2681-.1066.5253-.2962.7149a1.0109 1.0109 0 01-.7149.2961h-7.4847c-.2681 0-.5253-.1065-.7149-.2961a1.01108 1.01108 0 01-.2961-.7149v0c0-.2681-.1065-.5253-.2961-.7149a1.01108 1.01108 0 00-.7149-.2961H4.70547a1.01098 1.01098 0 00-1.01101 1.011v1.6306a3.60358 3.60358 0 001.05695 2.5497 3.60438 3.60438 0 001.17053.781A3.6056 3.6056 0 007.30229 61H51.6684c.4736.0005.9426-.0923 1.3803-.2731a3.60351 3.60351 0 001.1705-.781 3.6039 3.6039 0 00.7823-1.1696 3.6052 3.6052 0 00.2747-1.3801v-1.6306c0-.1328-.0262-.2642-.077-.3869a1.01022 1.01022 0 00-.2191-.328 1.01157 1.01157 0 00-.328-.2192 1.01114 1.01114 0 00-.3869-.0769H35.3007c-.2682 0-.5253.1065-.7149.2961a1.01108 1.01108 0 00-.2961.7149v0zM27.4656 40.3372l-3.5386-3.9951v-3.2613c0-.554-.2198-1.0853-.6111-1.4774a2.0916 2.0916 0 00-1.4761-.6139H3.08724a2.09167 2.09167 0 00-1.47615.6139A2.09141 2.09141 0 001 33.0808v12.2707a2.08714 2.08714 0 002.08724 2.0872H21.8398c.5536 0 1.0845-.2199 1.4759-.6113.3914-.3914.6113-.9223.6113-1.4759v-5.0143h3.5386zM5.87146 37.1223h1.26376M5.87146 41.314h1.26376M10.042 37.1223h7.9372M10.042 41.314h7.9372M57.5405 34.1594H38.788a2.0917 2.0917 0 00-1.4762.614c-.3913.3921-.611.9234-.611 1.4773v5.85l-3.9095 4.4191h3.9095v2.0057c0 .5536.2199 1.0845.6113 1.4759.3914.3914.9223.6113 1.4759.6113h18.7525c.5536 0 1.0845-.2199 1.476-.6113.3914-.3914.6113-.9223.6113-1.4759V36.2426a2.09138 2.09138 0 00-2.0873-2.0832v0zM41.4214 40.1984h7.9372M52.0615 40.1984h2.7069M41.4214 44.3902h13.3469" stroke="#697684" stroke-width="2" stroke-linecap="round" stroke-linejoin="round"/>
</svg>
