<svg xmlns="http://www.w3.org/2000/svg" xmlns:xlink="http://www.w3.org/1999/xlink" viewBox="0 0 94 90.6"><defs><style>.cls-1,.cls-12,.cls-2{fill:none;}.cls-2{clip-rule:evenodd;}.cls-3{clip-path:url(#clip-path);}.cls-4{clip-path:url(#clip-path-2);}.cls-5{isolation:isolate;}.cls-6{clip-path:url(#clip-path-3);}.cls-7{clip-path:url(#clip-path-4);}.cls-8{clip-path:url(#clip-path-5);}.cls-9{fill:#687684;}.cls-10{clip-path:url(#clip-path-6);}.cls-11{clip-path:url(#clip-path-8);}.cls-12{stroke:#687684;stroke-linecap:round;stroke-linejoin:round;stroke-width:2px;}.cls-13{clip-path:url(#clip-path-10);}.cls-14{clip-path:url(#clip-path-12);}.cls-15{clip-path:url(#clip-path-15);}.cls-16{fill:#fefefe;}.cls-17{clip-path:url(#clip-path-17);}.cls-18{clip-path:url(#clip-path-19);}.cls-19{clip-path:url(#clip-path-21);}.cls-20{fill:#2f8ccb;}.cls-21{clip-path:url(#clip-path-23);}.cls-22{fill:#697684;}.cls-23{clip-path:url(#clip-path-25);}.cls-24{clip-path:url(#clip-path-27);}.cls-25{clip-path:url(#clip-path-29);}.cls-26{clip-path:url(#clip-path-31);}.cls-27{clip-path:url(#clip-path-33);}.cls-28{clip-path:url(#clip-path-35);}.cls-29{clip-path:url(#clip-path-37);}.cls-30{clip-path:url(#clip-path-39);}.cls-31{clip-path:url(#clip-path-41);}.cls-32{clip-path:url(#clip-path-43);}.cls-33{clip-path:url(#clip-path-45);}.cls-34{clip-path:url(#clip-path-47);}.cls-35{clip-path:url(#clip-path-49);}.cls-36{clip-path:url(#clip-path-51);}.cls-37{clip-path:url(#clip-path-53);}</style><clipPath id="clip-path" transform="translate(-192 -2051.4)"><rect class="cls-1" x="197" y="2056.4" width="82.84" height="33.52"/></clipPath><clipPath id="clip-path-2" transform="translate(-192 -2051.4)"><rect class="cls-1" width="1366" height="4410"/></clipPath><clipPath id="clip-path-3" transform="translate(-192 -2051.4)"><rect class="cls-1" x="196" y="2056" width="85" height="34"/></clipPath><clipPath id="clip-path-4" transform="translate(-192 -2051.4)"><path class="cls-2" d="M237.29,2058.91a1.48,1.48,0,0,1,.82.25l38.52,25.5a1.49,1.49,0,1,1-1.65,2.49l-37.69-25-35.43,23.56a1.49,1.49,0,0,1-1.65-2.49l36.25-24.11a1.5,1.5,0,0,1,.83-.25m0-2.52a4,4,0,0,0-2.24.67l-36.26,24.11a4,4,0,0,0,2.25,7.35,4.06,4.06,0,0,0,2.24-.67l34-22.62,36.27,24a4,4,0,1,0,4.48-6.68l-38.52-25.5a4,4,0,0,0-2.24-.67"/></clipPath><clipPath id="clip-path-5" transform="translate(-192 -2051.4)"><rect class="cls-1" x="197" y="2056" width="83" height="34"/></clipPath><clipPath id="clip-path-6" transform="translate(-192 -2051.4)"><rect class="cls-1" x="197" y="2054" width="84" height="83"/></clipPath><clipPath id="clip-path-8" transform="translate(-192 -2051.4)"><rect class="cls-1" x="198" y="2053" width="83" height="84"/></clipPath><clipPath id="clip-path-10" transform="translate(-192 -2051.4)"><path class="cls-2" d="M216.54,2119.48h17.91v-27H216.54ZM234.46,2090H216.54a2.54,2.54,0,0,0-2.54,2.52v27a2.54,2.54,0,0,0,2.54,2.52h17.91a2.54,2.54,0,0,0,2.54-2.52v-27A2.53,2.53,0,0,0,234.46,2090Z"/></clipPath><clipPath id="clip-path-12" transform="translate(-192 -2051.4)"><path class="cls-2" d="M246.81,2122.51a.63.63,0,0,1,.63.62v1.73a.63.63,0,0,1-.63.62H201.19a.63.63,0,0,1-.63-.62v-1.73a.63.63,0,0,1,.63-.62h45.62m0-2.51H201.19a3.17,3.17,0,0,0-3.19,3.13v1.73a3.17,3.17,0,0,0,3.19,3.13h45.62a3.17,3.17,0,0,0,3.19-3.13v-1.73a3.17,3.17,0,0,0-3.19-3.13"/></clipPath><clipPath id="clip-path-15" transform="translate(-192 -2051.4)"><path class="cls-2" d="M244.52,2136a2.54,2.54,0,0,1-2.52-2.56v-48.88a2.54,2.54,0,0,1,2.52-2.56h33a2.54,2.54,0,0,1,2.52,2.56v48.88a2.54,2.54,0,0,1-2.52,2.56Z"/></clipPath><clipPath id="clip-path-17" transform="translate(-192 -2051.4)"><path class="cls-2" d="M277.17,2083.54a1.27,1.27,0,0,1,1.28,1.27v48.39a1.27,1.27,0,0,1-1.28,1.27H243.83a1.27,1.27,0,0,1-1.28-1.27V2084.8a1.27,1.27,0,0,1,1.28-1.27h33.35m0-2.54H243.83a3.82,3.82,0,0,0-3.83,3.8v48.39a3.82,3.82,0,0,0,3.83,3.8h33.35a3.82,3.82,0,0,0,3.83-3.8V2084.8a3.82,3.82,0,0,0-3.83-3.8"/></clipPath><clipPath id="clip-path-19" transform="translate(-192 -2051.4)"><path class="cls-2" d="M249.25,2096a1.3,1.3,0,0,1-1.25-1.33v-6.33a1.3,1.3,0,0,1,1.25-1.33h23.5a1.3,1.3,0,0,1,1.25,1.33v6.33a1.3,1.3,0,0,1-1.25,1.33Z"/></clipPath><clipPath id="clip-path-21" transform="translate(-192 -2051.4)"><path class="cls-2" d="M248.55,2094.48h23.9v-6h-23.9Zm23.9-8.48h-23.9a2.53,2.53,0,0,0-2.55,2.52v6a2.53,2.53,0,0,0,2.55,2.52h23.9a2.53,2.53,0,0,0,2.55-2.52v-6A2.53,2.53,0,0,0,272.45,2086Z"/></clipPath><clipPath id="clip-path-23" transform="translate(-192 -2051.4)"><path class="cls-2" d="M251,2103.5a2.5,2.5,0,1,1-2.5-2.5,2.5,2.5,0,0,1,2.5,2.5"/></clipPath><clipPath id="clip-path-25" transform="translate(-192 -2051.4)"><path class="cls-2" d="M259,2103.5a2.5,2.5,0,1,1-2.5-2.5,2.5,2.5,0,0,1,2.5,2.5"/></clipPath><clipPath id="clip-path-27" transform="translate(-192 -2051.4)"><path class="cls-2" d="M267,2103.5a2.5,2.5,0,1,1-2.5-2.5,2.5,2.5,0,0,1,2.5,2.5"/></clipPath><clipPath id="clip-path-29" transform="translate(-192 -2051.4)"><path class="cls-2" d="M275,2103.5a2.5,2.5,0,1,1-2.5-2.5,2.5,2.5,0,0,1,2.5,2.5"/></clipPath><clipPath id="clip-path-31" transform="translate(-192 -2051.4)"><path class="cls-2" d="M251,2111.5a2.5,2.5,0,1,1-2.5-2.5,2.5,2.5,0,0,1,2.5,2.5"/></clipPath><clipPath id="clip-path-33" transform="translate(-192 -2051.4)"><path class="cls-2" d="M259,2111.5a2.5,2.5,0,1,1-2.5-2.5,2.5,2.5,0,0,1,2.5,2.5"/></clipPath><clipPath id="clip-path-35" transform="translate(-192 -2051.4)"><path class="cls-2" d="M267,2111.5a2.5,2.5,0,1,1-2.5-2.5,2.5,2.5,0,0,1,2.5,2.5"/></clipPath><clipPath id="clip-path-37" transform="translate(-192 -2051.4)"><path class="cls-2" d="M275,2111.5a2.5,2.5,0,1,1-2.5-2.5,2.5,2.5,0,0,1,2.5,2.5"/></clipPath><clipPath id="clip-path-39" transform="translate(-192 -2051.4)"><path class="cls-2" d="M251,2119.5a2.5,2.5,0,1,1-2.5-2.5,2.5,2.5,0,0,1,2.5,2.5"/></clipPath><clipPath id="clip-path-41" transform="translate(-192 -2051.4)"><path class="cls-2" d="M259,2119.5a2.5,2.5,0,1,1-2.5-2.5,2.5,2.5,0,0,1,2.5,2.5"/></clipPath><clipPath id="clip-path-43" transform="translate(-192 -2051.4)"><path class="cls-2" d="M267,2119.5a2.5,2.5,0,1,1-2.5-2.5,2.5,2.5,0,0,1,2.5,2.5"/></clipPath><clipPath id="clip-path-45" transform="translate(-192 -2051.4)"><path class="cls-2" d="M275,2119.5a2.5,2.5,0,1,1-2.5-2.5,2.5,2.5,0,0,1,2.5,2.5"/></clipPath><clipPath id="clip-path-47" transform="translate(-192 -2051.4)"><path class="cls-2" d="M251,2127.5a2.5,2.5,0,1,1-2.5-2.5,2.5,2.5,0,0,1,2.5,2.5"/></clipPath><clipPath id="clip-path-49" transform="translate(-192 -2051.4)"><path class="cls-2" d="M259,2127.5a2.5,2.5,0,1,1-2.5-2.5,2.5,2.5,0,0,1,2.5,2.5"/></clipPath><clipPath id="clip-path-51" transform="translate(-192 -2051.4)"><path class="cls-2" d="M267,2127.5a2.5,2.5,0,1,1-2.5-2.5,2.5,2.5,0,0,1,2.5,2.5"/></clipPath><clipPath id="clip-path-53" transform="translate(-192 -2051.4)"><path class="cls-2" d="M275,2127.5a2.5,2.5,0,1,1-2.5-2.5,2.5,2.5,0,0,1,2.5,2.5"/></clipPath></defs><g id="Layer_2" data-name="Layer 2"><g id="Layer_1-2" data-name="Layer 1"><g class="cls-3"><g class="cls-4"><g class="cls-5"><g class="cls-6"><g class="cls-7"><g class="cls-8"><rect class="cls-9" width="92.84" height="43.52"/></g></g></g></g></g></g><g class="cls-10"><g class="cls-4"><g class="cls-5"><g class="cls-11"><g class="cls-10"><rect class="cls-12" x="20" y="3.6" width="13" height="4"/><polygon class="cls-12" points="31 14.66 22 20.6 22 8.6 31 8.6 31 14.66"/></g><g class="cls-13"><g class="cls-10"><rect class="cls-9" x="17" y="33.6" width="33" height="42"/></g></g><g class="cls-14"><g class="cls-10"><rect class="cls-9" x="1" y="63.6" width="62" height="18"/></g></g><g class="cls-10"><line class="cls-12" x1="13.5" y1="62.6" x2="13.5" y2="69.6"/><line class="cls-12" x1="13.5" y1="33.6" x2="13.5" y2="55.6"/><line class="cls-12" x1="38.5" y1="51.6" x2="38.5" y2="54.6"/></g><g class="cls-15"><g class="cls-10"><rect class="cls-16" x="45" y="25.6" width="48" height="64"/></g></g><g class="cls-17"><g class="cls-10"><rect class="cls-9" x="43" y="24.6" width="51" height="66"/></g></g><g class="cls-18"><g class="cls-10"><rect class="cls-16" x="51" y="30.6" width="36" height="19"/></g></g><g class="cls-19"><g class="cls-10"><rect class="cls-20" x="49" y="29.6" width="39" height="21"/></g></g><g class="cls-21"><g class="cls-10"><rect class="cls-22" x="49" y="44.6" width="15" height="15"/></g></g><g class="cls-23"><g class="cls-10"><rect class="cls-22" x="57" y="44.6" width="15" height="15"/></g></g><g class="cls-24"><g class="cls-10"><rect class="cls-22" x="65" y="44.6" width="15" height="15"/></g></g><g class="cls-25"><g class="cls-10"><rect class="cls-22" x="73" y="44.6" width="15" height="15"/></g></g><g class="cls-26"><g class="cls-10"><rect class="cls-22" x="49" y="52.6" width="15" height="15"/></g></g><g class="cls-27"><g class="cls-10"><rect class="cls-22" x="57" y="52.6" width="15" height="15"/></g></g><g class="cls-28"><g class="cls-10"><rect class="cls-22" x="65" y="52.6" width="15" height="15"/></g></g><g class="cls-29"><g class="cls-10"><rect class="cls-22" x="73" y="52.6" width="15" height="15"/></g></g><g class="cls-30"><g class="cls-10"><rect class="cls-22" x="49" y="60.6" width="15" height="15"/></g></g><g class="cls-31"><g class="cls-10"><rect class="cls-22" x="57" y="60.6" width="15" height="15"/></g></g><g class="cls-32"><g class="cls-10"><rect class="cls-22" x="65" y="60.6" width="15" height="15"/></g></g><g class="cls-33"><g class="cls-10"><rect class="cls-22" x="73" y="60.6" width="15" height="15"/></g></g><g class="cls-34"><g class="cls-10"><rect class="cls-22" x="49" y="68.6" width="15" height="15"/></g></g><g class="cls-35"><g class="cls-10"><rect class="cls-22" x="57" y="68.6" width="15" height="15"/></g></g><g class="cls-36"><g class="cls-10"><rect class="cls-22" x="65" y="68.6" width="15" height="15"/></g></g><g class="cls-37"><g class="cls-10"><rect class="cls-22" x="73" y="68.6" width="15" height="15"/></g></g></g></g></g></g></g></g></svg>
