<?xml version="1.0" encoding="UTF-8"?>
<svg width="79px" height="72px" viewBox="0 0 79 72" version="1.1" xmlns="http://www.w3.org/2000/svg" xmlns:xlink="http://www.w3.org/1999/xlink">
    <!-- Generator: Sketch 55.2 (78181) - https://sketchapp.com -->
    <g id="Page-1" stroke="none" stroke-width="1" fill="none" fill-rule="evenodd">
        <g id="MY---HP-loancare-entrypoint---Desktop" transform="translate(-503.000000, -2058.000000)">
            <g id="Group-4-Copy-4" transform="translate(0.000000, 1963.000000)">
                <g id="Group-6" transform="translate(112.000000, 32.000000)">
                    <g id="049-house" transform="translate(391.000000, 63.000000)">
                        <path d="M77.6700326,45.5062583 C76.1863568,43.3094724 73.1985911,42.7280425 71.0115442,44.208939 L61.0574034,50.9208629 L61.0284581,30.0289867 L64.4866612,33.2930066 C65.2220245,33.9869466 66.1808761,34.3688362 67.1875636,34.3688362 C67.1893918,34.3688362 67.1915246,34.3688362 67.193505,34.3688362 C68.2803254,34.3673012 69.3296691,33.9083584 70.0724973,33.1094295 C70.7941496,32.3332174 71.1727239,31.3204734 71.1382942,30.2573837 C71.1038645,29.194294 70.6605442,28.2084111 69.8901418,27.4813167 L63.3340284,21.2934165 C62.8852237,20.869777 62.1806339,20.8929544 61.7603174,21.3451435 C61.340001,21.7973327 61.3630049,22.5070824 61.8116573,22.930722 L68.3677707,29.1186222 C68.7041457,29.4360448 68.8976223,29.8664381 68.9127043,30.3304462 C68.927634,30.7944543 68.7624933,31.2366664 68.4472941,31.5754245 C68.1182316,31.9293784 67.6718644,32.124621 67.1901535,32.125235 C67.1892394,32.125235 67.1884777,32.125235 67.1875636,32.125235 C66.7483566,32.125235 66.3298683,31.958542 66.00888,31.6555477 L39.9759225,7.08445417 C39.5469225,6.67969422 38.8793522,6.68030819 38.4514186,7.08660307 L12.4862541,31.731066 C12.1509455,32.0494097 11.7125002,32.2161026 11.2518127,32.2032092 C10.7911252,32.1893949 10.3634963,31.9955338 10.0475353,31.6573896 C9.73157438,31.3195524 9.56506265,30.8778007 9.57892594,30.4137926 C9.59263687,29.949631 9.78504703,29.5187774 10.1203556,29.2004337 L38.0262272,2.71405971 C38.6877038,2.08612153 39.7254694,2.08458661 40.3886218,2.71083637 L56.7148447,18.1202643 C57.1634971,18.5437503 57.8680869,18.5207264 58.2885557,18.0685373 C58.7088721,17.6163481 58.6858682,16.9065984 58.2372158,16.4829588 L41.9111452,1.07353093 C40.391821,-0.360703815 38.0148014,-0.35748047 36.4994381,1.08105207 L27.5661528,9.55998263 L27.5637153,8.04762016 C27.5631059,7.57087218 27.3781606,7.12298081 27.0431567,6.78652506 C26.7087622,6.45052978 26.2648325,6.26557121 25.7925668,6.26557121 L19.3996136,6.27462728 C18.9264339,6.27524125 18.4820472,6.46158125 18.1479573,6.79911145 C17.8140198,7.13664165 17.6302933,7.5849935 17.631055,8.06189497 L17.6487269,18.9732226 L8.59356654,27.5677331 C7.82514466,28.2969764 7.38471887,29.2840872 7.35318371,30.3471768 C7.32164855,31.4102665 7.70296497,32.4220897 8.42675013,33.1959993 C9.15038296,33.9702159 10.1301056,34.4141165 11.1853908,34.4458894 C11.2257619,34.4471174 11.266133,34.4477313 11.3065041,34.4477313 C12.3173049,34.4477313 13.2744807,34.0655348 14.0131955,33.3640737 L17.4636292,30.0891558 L17.4773401,39.9573478 C16.3609651,39.7935712 15.2314885,39.7076153 14.0968323,39.7076153 L12.1917736,39.7076153 L12.1917736,39.0350108 C12.1917736,36.7769814 10.3683713,34.9398286 8.12724232,34.9398286 L4.56453132,34.9398286 C2.32340237,34.9396751 0.5,36.7766744 0.5,39.0348573 L0.5,56.6125215 C0.5,57.2320176 0.998468758,57.7342454 1.61332814,57.7342454 C2.22818753,57.7342454 2.72665629,57.2320176 2.72665629,56.6125215 L2.72665629,39.0348573 C2.72665629,38.0138246 3.55114068,37.1831228 4.56453132,37.1831228 L8.12708997,37.1831228 C9.14048062,37.1831228 9.964965,38.0138246 9.964965,39.0348573 L9.964965,40.8291857 L9.964965,63.8217614 L9.964965,65.5984381 C9.964965,66.6194708 9.14048062,67.4501727 8.12708997,67.4501727 L4.56453132,67.4501727 C3.55114068,67.4501727 2.72665629,66.6194708 2.72665629,65.5984381 L2.72665629,63.6355749 C2.72665629,63.0160788 2.22818753,62.5138511 1.61332814,62.5138511 C0.998468758,62.5138511 0.5,63.0160788 0.5,63.6355749 L0.5,65.5984381 C0.5,67.8564676 2.32340237,69.6936204 4.56453132,69.6936204 L8.12708997,69.6936204 C10.3682189,69.6936204 12.1916213,67.8566211 12.1916213,65.5984381 L12.1916213,65.44602 L28.4960591,71.6667676 C28.5262231,71.6782795 28.5568442,71.68841 28.5879224,71.6971591 C29.2967778,71.8988484 30.0053286,72 30.7048911,72 C31.083313,72 31.4591451,71.9703759 31.8311685,71.9111278 L55.7919462,68.4311438 C55.797583,68.4303764 55.8030673,68.4294554 55.8087041,68.4285345 C57.8458447,68.1008278 59.7676612,67.2331342 61.3662042,65.9195446 C61.3800674,65.9081862 61.3937784,65.8963672 61.4070323,65.8842413 L76.8868333,51.8568607 C78.6895169,50.244421 79.0260443,47.5142484 77.6700326,45.5062583 Z M25.3376684,8.50978634 L25.3428481,11.6701987 L19.8718792,16.862853 L19.8583206,8.51730748 L25.3376684,8.50978634 Z M39.2167936,9.44210032 L58.7987549,27.9244498 L58.8327276,52.4207924 L55.680583,54.5463578 L52.342579,54.3577154 L52.254372,53.4643886 C51.9437431,50.3180975 49.6384774,47.7871582 46.5902312,47.1831649 C42.2779594,46.7056513 40.1214679,46.4668945 40.120757,46.4668945 L31.9464927,45.3368025 C29.844606,44.8526869 27.8376294,44.053144 25.9612114,42.9472299 C25.727059,42.8092401 25.4906215,42.6760085 25.2522035,42.5464608 C25.1592739,42.4959617 25.0648207,42.4485325 24.9711293,42.3992614 C24.8260981,42.3229756 24.6813715,42.2462293 24.5348168,42.1730133 C24.4181215,42.1146861 24.3000551,42.0594288 24.1824457,42.003097 C24.0576762,41.9433884 23.933059,41.8830658 23.8073754,41.8255061 C23.6794066,41.7670254 23.5503715,41.7113076 23.4214887,41.6551293 C23.3037269,41.6038628 23.1859652,41.5522893 23.0674418,41.5030182 C22.9349027,41.4479143 22.8016019,41.3949594 22.6681488,41.3423114 C22.5497777,41.2956497 22.4312543,41.2492949 22.3122738,41.2044751 C22.1801918,41.1547435 22.0475004,41.1067003 21.9145043,41.0595781 C21.7897347,41.0152187 21.6648129,40.9719338 21.5392816,40.9297233 C21.4119222,40.8868989 21.2842582,40.8449954 21.1559847,40.8043199 C21.0193324,40.7608815 20.8820707,40.7194385 20.7446566,40.678456 C20.6265902,40.6434597 20.5086761,40.6084633 20.3900003,40.5753089 C20.2350667,40.5318705 20.0793714,40.491195 19.9235238,40.45098 C19.8505511,40.4321004 19.7780355,40.4107649 19.7046058,40.3924993 L19.6873909,27.9783257 L39.2167936,9.44210032 Z M75.4033099,50.1842519 L59.9387432,64.1978183 C58.6500674,65.2506239 57.1042353,65.9470198 55.4657783,66.211948 L31.5153599,69.690397 C31.5103326,69.6911645 31.5054576,69.691932 31.5004302,69.6926994 L31.4838247,69.6953088 C30.7582114,69.8110422 30.0025864,69.7622316 29.2376685,69.5507188 L12.1917736,63.0469308 L12.1917736,41.9509095 L14.0968323,41.9509095 C15.7185315,41.9509095 17.329262,42.1395519 18.8977933,42.5059387 C18.9561409,42.5195996 19.0143363,42.5335674 19.0725316,42.5476887 C19.2652464,42.5945039 19.4575042,42.6427006 19.648848,42.6948881 C19.6656058,42.6994929 19.6822113,42.7044046 19.6989691,42.7090094 C19.8907699,42.7618109 20.0818089,42.8175287 20.2722386,42.8757024 C20.3063636,42.8861399 20.340641,42.8964239 20.3746136,42.9070149 C20.5772308,42.9701003 20.7789339,43.0359486 20.9795707,43.1050203 C21.0002894,43.1122344 21.0208558,43.1196021 21.0415746,43.1268162 C21.4594535,43.2721737 21.8732191,43.4307316 22.2818051,43.6023363 C22.3040472,43.6116993 22.3262894,43.6210624 22.3485316,43.6305789 C22.5522152,43.7168417 22.7546801,43.8060209 22.9557738,43.8987305 C22.9611058,43.9011863 22.9665902,43.9037957 22.9719223,43.9064051 C23.1663129,43.9963518 23.3593324,44.0896752 23.5511332,44.1856081 C23.5736801,44.1968131 23.5963793,44.2078645 23.6189262,44.219223 C23.806309,44.3136209 23.9921684,44.4113957 24.1769613,44.5114729 C24.2118481,44.5303525 24.2465824,44.5496925 24.2814692,44.5687256 C24.4679379,44.6711052 24.6533403,44.7754801 24.8369145,44.8836924 C27.4863247,46.4451725 30.3704966,47.4565352 33.4094498,47.8898447 C33.4190474,47.8912262 33.4284927,47.8924541 33.4380904,47.8935286 L45.9121492,49.3405032 C45.9811609,49.3504802 46.0497156,49.3619922 46.1178133,49.3748855 C47.9541649,49.7223928 49.4035633,51.0895512 49.8884735,52.8699118 C49.9603797,53.133612 50.0109579,53.4065219 50.0386844,53.6863388 L50.0881962,54.1882596 L26.7095239,52.1245518 C26.0974067,52.0706759 25.556891,52.5270093 25.503266,53.1440495 C25.4494887,53.7612432 25.9027114,54.3053744 26.5151333,54.3594038 L51.2316884,56.541301 C51.2376298,56.5417615 51.2434188,56.541608 51.2492079,56.5420684 C51.254997,56.5425289 51.2606337,56.5434499 51.2665751,56.5439104 L55.9278369,56.8074571 C55.948708,56.8086851 55.9694267,56.8091455 55.9901455,56.8091455 C56.0122353,56.8091455 56.0340205,56.8056152 56.055958,56.8042338 C56.08079,56.8026989 56.105622,56.8017779 56.1303017,56.798708 C56.1635127,56.7944103 56.1959619,56.7871961 56.2285634,56.779982 C56.251872,56.7747632 56.275333,56.7709259 56.2981845,56.7641722 C56.333833,56.7538882 56.3681103,56.7399204 56.4026924,56.7259526 C56.4212783,56.7184314 56.4404736,56.7127522 56.4587549,56.7041566 C56.5107041,56.6799048 56.5612822,56.6519691 56.6094228,56.6194287 L60.5660948,53.951574 C60.5662471,53.9514205 60.5663995,53.951267 60.5665518,53.9511136 L72.2516223,46.072032 C73.427259,45.275866 75.0320481,45.5882234 75.8289583,46.7682744 C76.5574661,47.8467133 76.3766341,49.313335 75.4033099,50.1842519 Z" id="Shape" fill="#697684" fill-rule="nonzero"></path>
                        <path d="M32.5,45.7017024 L32.5,31 C32.5,30.4477153 32.9477153,30 33.5,30 L46.5,30 C47.0522847,30 47.5,30.4477153 47.5,31 L47.5,48" id="Rectangle" stroke="#0081C6" stroke-width="2" stroke-linecap="round" stroke-linejoin="round"></path>
                    </g>
                </g>
            </g>
        </g>
    </g>
</svg>
