<svg xmlns="http://www.w3.org/2000/svg" viewBox="0 0 63 62">
  <path d="M28.4 44.5c.5 0 1 .4 1 1v1.9c0 .5-.4 1-1 1-.5 0-1-.4-1-1v-1.9c.1-.6.5-1 1-1zM28.4 35.8c.5 0 1 .4 1 1v3.9c0 .5-.4 1-1 1-.5 0-1-.4-1-1v-3.9c.1-.6.5-1 1-1z" fill="#697684"/>
  <path d="M29 16.2c-.6 0-1-.4-1-1v-4.1c0-.6.4-1 1-1s1 .4 1 1v4.1c0 .6-.4 1-1 1zM29 24.4c-.6 0-1-.4-1-1v-4.1c0-.6.4-1 1-1s1 .4 1 1v4.1c0 .5-.4 1-1 1zM29 61c-.6 0-1-.4-1-1V47.8c0-.6.4-1 1-1s1 .4 1 1V60c0 .5-.4 1-1 1zM29 32.5c-.6 0-1-.4-1-1v-4.1c0-.6.4-1 1-1s1 .4 1 1v4.1c0 .6-.4 1-1 1zM33 16.2c-.6 0-1-.4-1-1v-4.1c0-.6.4-1 1-1s1 .4 1 1v4.1c0 .6-.4 1-1 1zM33 24.4c-.6 0-1-.4-1-1v-4.1c0-.6.4-1 1-1s1 .4 1 1v4.1c0 .5-.4 1-1 1zM33 61c-.6 0-1-.4-1-1v-8.1c0-.6.4-1 1-1s1 .4 1 1V60c0 .5-.4 1-1 1zM33 32.5c-.6 0-1-.4-1-1v-4.1c0-.6.4-1 1-1s1 .4 1 1v4.1c0 .6-.4 1-1 1zM37 32.5c-.6 0-1-.4-1-1v-4.1c0-.6.4-1 1-1s1 .4 1 1v4.1c0 .6-.4 1-1 1zM37 16.2c-.6 0-1-.4-1-1v-4.1c0-.6.4-1 1-1s1 .4 1 1v4.1c0 .6-.4 1-1 1zM37 24.4c-.6 0-1-.4-1-1v-4.1c0-.6.4-1 1-1s1 .4 1 1v4.1c0 .5-.4 1-1 1zM37 61c-.6 0-1-.4-1-1v-4.1c0-.6.4-1 1-1s1 .4 1 1V60c0 .5-.4 1-1 1z" fill="#0081c6"/>
  <path d="M32.2 44.5c.5 0 1 .4 1 1v3.9c0 .5-.4 1-1 1-.5 0-1-.4-1-1v-3.9c.1-.6.5-1 1-1zM32.2 35.8c.5 0 1 .4 1 1v3.9c0 .5-.4 1-1 1-.5 0-1-.4-1-1v-3.9c.1-.6.5-1 1-1zM36 44.5c.5 0 1 .4 1 1v3.9c0 .5-.4 1-1 1-.5 0-1-.4-1-1v-3.9c.1-.6.5-1 1-1zM36 35.8c.5 0 1 .4 1 1v3.9c0 .5-.4 1-1 1-.5 0-1-.4-1-1v-3.9c.1-.6.5-1 1-1z" fill="#697684"/>
  <path d="M15 21.3c-1.1 0-2 .9-2 2v2H3c-1.1 0-2 .9-2 2V61h24V25.4h-4v-2c0-1.1-.9-2-2-2h-4zm4 6.1H3V59h20V27.4h-4zm0-2v-2h-4v2h4z" fill-rule="evenodd" clip-rule="evenodd" fill="#697684"/>
  <path d="M7 60c-.6 0-1-.4-1-1V32.5c0-.6.4-1 1-1s1 .4 1 1V59c0 .5-.4 1-1 1zM11 60c-.6 0-1-.4-1-1V32.5c0-.6.4-1 1-1s1 .4 1 1V59c0 .5-.4 1-1 1zM15 60c-.6 0-1-.4-1-1V32.5c0-.6.4-1 1-1s1 .4 1 1V59c0 .5-.4 1-1 1zM19 60c-.6 0-1-.4-1-1V32.5c0-.6.4-1 1-1s1 .4 1 1V59c0 .5-.4 1-1 1z" fill="#697684"/>
  <path d="M28 1c-1.1 0-2 .9-2 2v2h-1c-1.1 0-2 .9-2 2v54h18.7l.2-.7.9-3c.2-.3.2-.6.2-.9V7.1c0-1.1-.9-2-2-2h-1V3c0-1.1-.9-2-2-2H28zm10 6.1H25V59h15.3l.7-2.3V7.1h-3zm0-2V3H28v2h10z" fill-rule="evenodd" clip-rule="evenodd" fill="#697684"/>
  <path d="M42.7 23.7c.2-.2.5-.3.8-.3l14.2 1.4c.5 0 .9.4.9.9L60 40.2c0 .3-.1.6-.3.8L42.3 58.7c-.4.4-1 .4-1.4 0L25.3 42.9c-.4-.4-.4-1 0-1.4l17.4-17.8z" fill="#fff"/>
  <path d="M43.2 50.2c5.1 0 9.2-4.2 9.2-9.4s-4.1-9.4-9.2-9.4-9.2 4.2-9.2 9.4 4.2 9.4 9.2 9.4zm0-2c4 0 7.2-3.3 7.2-7.3 0-1.5-.4-2.8-1.2-4l-5.8 6.9c-.2.2-.5.4-.8.4-.3 0-.6-.2-.8-.4l-2.2-3.1c-.3-.4-.2-1.1.2-1.4.4-.3 1.1-.2 1.4.2l1.5 2 5.2-6.1c-1.3-1.1-2.9-1.8-4.7-1.8-4 0-7.2 3.3-7.2 7.3s3.3 7.3 7.2 7.3z" fill-rule="evenodd" clip-rule="evenodd" fill="#0081c6"/>
  <path d="M43.7 60.1l17.4-17.7c.6-.6 1-1.5.9-2.4l-1.3-14.5c-.1-1.5-1.3-2.6-2.7-2.8l-14.2-1.4c-.9-.1-1.8.2-2.4.9L23.9 40c-1.2 1.2-1.2 3.1 0 4.3l15.6 15.8c1.1 1.2 3 1.2 4.2 0zm-1-36.4c.2-.2.5-.3.8-.3l14.2 1.4c.5 0 .9.4.9.9L60 40.2c0 .3-.1.6-.3.8L42.3 58.7c-.4.4-1 .4-1.4 0L25.3 42.9c-.4-.4-.4-1 0-1.4l17.4-17.8zM56 29c0 .8-.7 1.5-1.5 1.5S53 29.8 53 29s.7-1.5 1.5-1.5c.9-.1 1.5.6 1.5 1.5zm1 0c0 1.4-1.1 2.5-2.5 2.5S52 30.4 52 29s1.1-2.5 2.5-2.5S57 27.6 57 29z" fill-rule="evenodd" clip-rule="evenodd" fill="#697684"/>
</svg>
